<?xml version="1.0" encoding="utf-8"?>
<!-- Generator: Adobe Illustrator 28.7.1, SVG Export Plug-In . SVG Version: 9.03 Build 54978)  -->
<svg version="1.1" id="Layer_1" xmlns="http://www.w3.org/2000/svg" xmlns:xlink="http://www.w3.org/1999/xlink" x="0px" y="0px"
	 viewBox="0 0 492.2 92.6" style="enable-background:new 0 0 492.2 92.6;" xml:space="preserve">
<style type="text/css">
	.st0{fill:#FFFFFF;}
	.st1{fill:url(#SVGID_1_);}
</style>
<path class="st0" d="M38.9,37.6c-11-4.6-14.9-6.4-14.9-11.9c0-6.3,8.7-7.1,12.5-7.2c7.4,0,14.9,2.7,19.7,7.1l2.4,2.3
	c0.3,0.3,0.9,0.1,0.9-0.4V9.3l-0.9-0.6c-6.5-4.4-13.6-6.5-21-6.5c-18.1,0-30.8,9.6-30.8,23.4c0,14.9,8.3,21.1,24.7,27.9
	C43,58.3,47,60.8,47,65.3c0,2.2,0,8.9-14.8,8.9c-8.9,0-18.4-3.3-25.4-8.9l-2.4-1.9c-0.4-0.3-0.9,0-0.9,0.4V81l0.7,0.6
	c3,2.6,11.8,8.7,28,8.7c18.8,0,32-10.2,32-24.9C64.2,50.6,56,44.6,38.9,37.6z"/>
<path class="st0" d="M106.8,35L87.4,5.3c-0.3-0.4-0.7-0.7-1.2-0.7H69.6c-1.2,0-1.9,1.3-1.2,2.3l30.9,45.6c0.2,0.2,0.3,0.5,0.3,0.8
	V87c0,0.8,0.7,1.5,1.5,1.5h14c0.8,0,1.5-0.7,1.5-1.5V53.3c0-0.3,0.1-0.6,0.3-0.8l30.9-45.6c0.7-1,0-2.3-1.2-2.3h-16.7
	c-0.5,0-1,0.3-1.2,0.7L109.2,35C108.7,35.9,107.4,35.9,106.8,35z"/>
<path class="st0" d="M214.1,59.2L176.2,4.9c-0.1-0.1-0.3-0.2-0.4-0.2h-16.9c-0.3,0-0.5,0.2-0.5,0.5v82.7c0,0.3,0.2,0.5,0.5,0.5h15.6
	c0.3,0,0.5-0.2,0.5-0.5V33.1c0-0.5,0.7-0.8,1-0.3l38.3,55.4c0.1,0.1,0.3,0.2,0.4,0.2h16.4c0.3,0,0.5-0.2,0.5-0.5V5.2
	c0-0.3-0.2-0.5-0.5-0.5h-15.6c-0.3,0-0.5,0.2-0.5,0.5v53.8C215.1,59.5,214.4,59.7,214.1,59.2z"/>
<path class="st0" d="M281.2,53.8H304c0.3,0,0.5,0.2,0.5,0.5l0,13.4c0,0.2-0.1,0.3-0.2,0.4c-3.3,2.3-10.2,6-19.4,6
	c-15.2,0-26.7-11.9-26.7-27.7c0-16.6,11.6-27.7,28.8-27.7c6.7,0,12.4,1,17,3c4.5,1.9,7.8,3.7,9.8,5.3l2.4,2c0.4,0.3,0.9,0,0.9-0.4
	V10.8l-0.9-0.6c-2.3-1.5-6-3-11.2-4.8c-5-1.8-10.9-2.7-17.9-2.7c-13.2-0.2-25.2,4.5-33.8,13.1c-8.1,8.1-12.5,19-12.3,30.6
	c-0.2,11.7,4.2,22.7,12.2,30.9c8.2,8.3,19.5,12.9,31.8,12.9c7.7,0,13.9-1.9,18.2-3.8c0.7-0.3,1.5,0.2,1.5,1v0c0,0.6,0.5,1.1,1.1,1.1
	h15.2c0.3,0,0.5-0.2,0.5-0.5V38.3c0-0.3-0.2-0.5-0.5-0.5h-39.6c-0.3,0-0.5,0.2-0.5,0.5v14.9C280.6,53.5,280.9,53.8,281.2,53.8z"/>
<path class="st0" d="M463.5,37.6c-11-4.6-14.9-6.4-14.9-11.9c0-6.3,8.7-7.1,12.5-7.2c7.4,0,14.9,2.7,19.7,7.1l2.4,2.3
	c0.3,0.3,0.9,0.1,0.9-0.4V9.3l-0.9-0.6c-6.5-4.4-13.6-6.5-21-6.5c-18.1,0-30.8,9.6-30.8,23.4c0,14.9,8.3,21.1,24.7,27.9
	c11.3,4.7,15.3,7.1,15.3,11.7c0,2.2,0,8.9-14.8,8.9c-8.9,0-18.4-3.3-25.4-8.9l-2.4-1.9c-0.4-0.3-0.9,0-0.9,0.4V81l0.7,0.6
	c3,2.6,11.8,8.7,28,8.7c18.8,0,32-10.2,32-24.9C488.7,50.6,480.6,44.6,463.5,37.6z"/>
<g>
	<path class="st0" d="M364.8,52.8c0,0,0,0.1,0,0.1l0.7-1.8L364.8,52.8z"/>
	<path class="st0" d="M420.4,87.7L383.6,4.9c-0.1-0.2-0.3-0.3-0.5-0.3h-14.5c-0.2,0-0.4,0.1-0.5,0.3l-36.8,82.7
		c-0.2,0.4,0.1,0.8,0.5,0.8H350c0.2,0,0.4-0.1,0.5-0.3l7.4-18.2c0,0,0,0,0,0l6.9-16.9c0,0,0-0.1,0-0.1l0.7-1.7l9.9-23.2
		c0.2-0.4,0.8-0.4,1,0l10.5,24.9c0,0,0,0,0,0.1l6.9,17c0,0,0,0,0,0l7.4,18.2c0.1,0.2,0.3,0.3,0.5,0.3h18.2
		C420.3,88.4,420.5,88,420.4,87.7z"/>
</g>
<linearGradient id="SVGID_1_" gradientUnits="userSpaceOnUse" x1="375.8217" y1="49.5566" x2="375.8217" y2="86.9215">
	<stop  offset="0.121" style="stop-color:#3EB821"/>
	<stop  offset="0.2469" style="stop-color:#2EBF19"/>
	<stop  offset="0.4865" style="stop-color:#15CB0D"/>
	<stop  offset="0.7045" style="stop-color:#05D206"/>
	<stop  offset="0.88" style="stop-color:#00D403"/>
</linearGradient>
<path class="st1" d="M367.3,63.5c2.8-4.7,5.9-9.2,8.6-14c2.7,4.8,5.7,9.3,8.6,14c2.6,4.3,5.3,8.9,4,14.1c-1,3.9-3.9,6.9-7.7,8.4
	c0,0,0,0,0,0c-3.1,1.2-6.6,1.2-9.8,0c0,0,0,0,0,0c-3.8-1.5-6.7-4.5-7.7-8.4C361.9,72.4,364.7,67.9,367.3,63.5z M366.7,73.9
	c0,1.3,0.3,2.5,0.8,3.7c0.5,1.1,1.1,2.2,2,3.1c-0.5-1.1-0.9-2.2-1.3-3.4c-0.3-1.1-0.5-2.3-0.5-3.4c0-1.2,0.1-2.3,0.5-3.4
	c0.2-0.6,0.4-1.1,0.6-1.7c0.2-0.6,0.5-1.1,0.7-1.6c-0.9,0.9-1.5,1.9-2,3.1C367,71.4,366.7,72.7,366.7,73.9z"/>
</svg>
